<?xml version="1.0" encoding="utf-8"?>
<!-- Generator: Adobe Illustrator 27.8.1, SVG Export Plug-In . SVG Version: 6.00 Build 0)  -->
<svg version="1.1" id="Layer_1" xmlns="http://www.w3.org/2000/svg" xmlns:xlink="http://www.w3.org/1999/xlink" x="0px" y="0px"
	 viewBox="0 0 522.3 123.6" style="enable-background:new 0 0 522.3 123.6;" xml:space="preserve">
<style type="text/css">
	.st0{fill:#1D1D1B;}
	.st1{fill:#1D3E74;}
</style>
<g>
	<g>
		<path class="st0" d="M159.9,4.3l18,47.9L196,4.3h10.4v57.1h-7.2V13.9H199l-17.8,47.5h-6.5l-17.8-47.5h-0.2v47.5h-7.2V4.3H159.9
			L159.9,4.3z"/>
		<path class="st0" d="M254.5,61.2c-1.2,0.7-2.8,1-4.9,1c-1.8,0-3.2-0.5-4.2-1.5s-1.6-2.6-1.6-4.8c-1.9,2.2-4,3.9-6.5,4.8
			c-2.5,1-5.2,1.5-8,1.5c-1.9,0-3.6-0.2-5.3-0.6c-1.7-0.4-3.1-1.1-4.4-2c-1.2-0.9-2.2-2.1-2.9-3.6s-1.1-3.2-1.1-5.3
			c0-2.3,0.4-4.3,1.2-5.8s1.9-2.7,3.2-3.6c1.3-0.9,2.8-1.6,4.5-2.1s3.4-0.9,5.2-1.2c1.9-0.4,3.6-0.7,5.3-0.8s3.2-0.4,4.4-0.8
			c1.3-0.3,2.3-0.8,3-1.5s1.1-1.6,1.1-2.9c0-1.5-0.3-2.7-0.8-3.6c-0.6-0.9-1.3-1.6-2.2-2.1s-1.9-0.8-3-1s-2.2-0.2-3.2-0.2
			c-2.9,0-5.3,0.6-7.2,1.6c-1.9,1.1-3,3.2-3.1,6.2h-6.8c0.1-2.6,0.6-4.7,1.6-6.5s2.2-3.2,3.8-4.3c1.6-1.1,3.4-1.9,5.5-2.4
			c2-0.5,4.2-0.7,6.6-0.7c1.9,0,3.7,0.1,5.6,0.4c1.8,0.3,3.5,0.8,5,1.6c1.5,0.8,2.7,2,3.6,3.5c0.9,1.5,1.4,3.4,1.4,5.8v21.2
			c0,1.6,0.1,2.8,0.3,3.5s0.8,1.1,1.9,1.1c0.6,0,1.3-0.1,2.1-0.3L254.5,61.2L254.5,61.2z M243.4,40c-0.9,0.6-2,1.1-3.4,1.4
			c-1.4,0.3-2.8,0.5-4.4,0.7c-1.5,0.2-3,0.4-4.6,0.6c-1.5,0.2-2.9,0.6-4.2,1.2c-1.2,0.5-2.2,1.3-3,2.3s-1.2,2.3-1.2,4
			c0,1.1,0.2,2.1,0.7,2.8c0.4,0.8,1,1.4,1.8,1.9c0.7,0.5,1.6,0.8,2.5,1c1,0.2,2,0.3,3,0.3c2.2,0,4.2-0.3,5.8-0.9
			c1.6-0.6,2.9-1.4,3.9-2.3c1-0.9,1.8-1.9,2.2-3c0.5-1.1,0.7-2.1,0.7-3.1L243.4,40L243.4,40z"/>
		<path class="st0" d="M267.2,20.1v6.6h0.2c2.8-5,7.3-7.5,13.4-7.5c2.7,0,5,0.4,6.8,1.1s3.3,1.8,4.4,3.1c1.1,1.3,1.9,2.9,2.4,4.8
			c0.4,1.8,0.7,3.9,0.7,6.1v27.2h-6.8v-28c0-2.6-0.7-4.6-2.2-6.1s-3.5-2.2-6.2-2.2c-2.1,0-3.9,0.3-5.4,1c-1.5,0.6-2.8,1.5-3.8,2.7
			s-1.8,2.5-2.3,4.1c-0.5,1.6-0.8,3.3-0.8,5.2v23.3h-6.8V20.1H267.2L267.2,20.1z"/>
		<path class="st0" d="M312,4.3v21.8h0.2c0.5-1.3,1.3-2.4,2.2-3.2c1-0.9,2-1.6,3.2-2.2s2.4-1,3.8-1.2c1.3-0.3,2.6-0.4,3.8-0.4
			c2.7,0,5,0.4,6.8,1.1s3.3,1.8,4.4,3.1c1.1,1.3,1.9,2.9,2.4,4.8c0.4,1.8,0.7,3.9,0.7,6.1v27.2h-6.8v-28c0-2.6-0.7-4.6-2.2-6.1
			s-3.5-2.2-6.2-2.2c-2.1,0-3.9,0.3-5.4,1c-1.5,0.6-2.8,1.5-3.8,2.7s-1.8,2.5-2.3,4.1c-0.5,1.6-0.8,3.3-0.8,5.2v23.3h-6.8V4.3H312z"
			/>
		<path class="st0" d="M378.9,58.7c-3.1,2.3-7,3.5-11.7,3.5c-3.3,0-6.2-0.5-8.6-1.6s-4.5-2.6-6.1-4.5s-2.9-4.2-3.7-6.9
			c-0.8-2.7-1.3-5.6-1.4-8.7c0-3.1,0.5-6,1.4-8.6s2.3-4.9,4-6.8c1.7-1.9,3.8-3.4,6.2-4.5c2.4-1.1,5-1.6,7.8-1.6
			c3.7,0,6.7,0.8,9.1,2.3s4.4,3.5,5.8,5.8s2.5,4.9,3,7.7c0.6,2.8,0.8,5.4,0.7,7.9h-30.9c-0.1,1.8,0.2,3.5,0.6,5.2
			c0.5,1.6,1.3,3.1,2.3,4.3c1.1,1.3,2.4,2.3,4.1,3s3.6,1.1,5.8,1.1c2.9,0,5.2-0.7,7.1-2c1.8-1.3,3-3.4,3.6-6.1h6.7
			C384,52.9,382,56.4,378.9,58.7L378.9,58.7z M377.2,32.2c-0.6-1.4-1.4-2.7-2.5-3.7c-1-1-2.3-1.9-3.7-2.5c-1.4-0.6-3-0.9-4.7-0.9
			s-3.3,0.3-4.8,0.9s-2.6,1.4-3.6,2.5s-1.8,2.3-2.4,3.7s-0.9,2.9-1,4.5h23.7C378.2,35.1,377.8,33.6,377.2,32.2L377.2,32.2z"/>
		<path class="st0" d="M392.9,12.6V4.3h6.8v8.3H392.9z M399.7,20.1v41.3h-6.8V20.1H399.7z"/>
		<path class="st0" d="M416.7,20.1v6.1h0.2c3.1-4.7,7.5-7,13.3-7c2.6,0,4.9,0.5,6.9,1.6c2.1,1.1,3.5,2.9,4.4,5.4
			c1.4-2.2,3.2-4,5.5-5.2s4.8-1.8,7.5-1.8c2.1,0,4,0.2,5.6,0.7c1.7,0.5,3.1,1.2,4.3,2.1c1.2,1,2.1,2.2,2.8,3.7c0.7,1.5,1,3.3,1,5.5
			v30.3h-6.8V34.3c0-1.3-0.1-2.5-0.3-3.6c-0.2-1.1-0.6-2.1-1.2-2.9s-1.4-1.5-2.4-2s-2.4-0.7-4-0.7c-3.4,0-6,1-7.9,2.9
			s-2.9,4.5-2.9,7.7v25.7h-6.8V34.3c0-1.3-0.1-2.6-0.4-3.7c-0.2-1.1-0.7-2.1-1.2-2.9c-0.6-0.8-1.4-1.5-2.4-1.9s-2.3-0.7-3.8-0.7
			c-2,0-3.7,0.4-5.1,1.2c-1.4,0.8-2.6,1.8-3.4,2.9c-0.9,1.1-1.5,2.3-1.9,3.5c-0.4,1.2-0.6,2.2-0.6,3v25.7h-6.8V20.1H416.7
			L416.7,20.1z"/>
	</g>
</g>
<g>
	<g>
		<path class="st0" d="M153.3,78.6v11.6h0.1c0.6-1.2,1.6-2.2,2.9-2.7s2.7-0.8,4.3-0.8c1.7,0,3.2,0.3,4.5,1s2.4,1.5,3.2,2.6
			s1.5,2.3,1.9,3.8c0.4,1.4,0.7,2.9,0.7,4.5s-0.2,3.1-0.6,4.5c-0.4,1.4-1.1,2.7-1.9,3.7c-0.9,1.1-1.9,1.9-3.2,2.5s-2.8,0.9-4.5,0.9
			c-0.6,0-1.2-0.1-1.8-0.2c-0.7-0.1-1.4-0.3-2-0.6c-0.7-0.3-1.3-0.6-1.9-1.1c-0.6-0.4-1.1-1-1.5-1.7h-0.1v3h-3.7v-31L153.3,78.6
			L153.3,78.6z M166.5,95.1c-0.3-1-0.7-1.9-1.3-2.7c-0.6-0.8-1.3-1.4-2.2-1.9s-1.9-0.7-3.1-0.7c-1.2,0-2.3,0.2-3.2,0.7
			s-1.6,1.1-2.1,1.9c-0.6,0.8-0.9,1.7-1.2,2.7c-0.2,1-0.4,2-0.4,3.1s0.1,2.2,0.4,3.2c0.3,1,0.7,1.9,1.2,2.7c0.6,0.8,1.3,1.4,2.2,1.9
			s2,0.7,3.3,0.7s2.3-0.2,3.2-0.7s1.5-1.1,2.1-1.9c0.5-0.8,0.9-1.7,1.1-2.8c0.2-1,0.3-2.1,0.3-3.2C167,97.2,166.8,96.1,166.5,95.1
			L166.5,95.1z"/>
		<path class="st0" d="M184,112.6c-0.4,1.1-0.9,2-1.3,2.8c-0.4,0.8-0.9,1.4-1.4,1.8s-1.1,0.8-1.7,1c-0.6,0.2-1.3,0.3-2.1,0.3
			c-0.4,0-0.9,0-1.3-0.1c-0.4-0.1-0.9-0.2-1.3-0.3v-3.4c0.3,0.1,0.7,0.3,1.1,0.4c0.4,0.1,0.8,0.2,1.1,0.2c0.8,0,1.4-0.2,1.9-0.5
			c0.5-0.4,0.9-0.9,1.2-1.5l1.5-3.8l-8.9-22.3h4.2l6.6,18.4h0.1l6.3-18.4h3.9L184,112.6L184,112.6z"/>
		<path class="st0" d="M228.3,83c-1.6-1.1-3.4-1.7-5.6-1.7c-1.8,0-3.4,0.3-4.8,1c-1.3,0.7-2.4,1.6-3.3,2.8c-0.9,1.2-1.5,2.5-1.9,4
			s-0.6,3.1-0.6,4.7c0,1.8,0.2,3.4,0.6,5c0.4,1.6,1,2.9,1.9,4.1s1.9,2.1,3.3,2.8s2.9,1,4.8,1c1.4,0,2.6-0.2,3.6-0.7
			c1.1-0.4,2-1.1,2.7-1.9c0.8-0.8,1.4-1.7,1.8-2.8c0.4-1.1,0.7-2.3,0.8-3.6h4.1c-0.4,3.9-1.8,6.9-4,9.1s-5.4,3.3-9.4,3.3
			c-2.4,0-4.5-0.4-6.3-1.2c-1.8-0.8-3.3-2-4.5-3.4s-2.1-3.2-2.7-5.1s-0.9-4.1-0.9-6.3s0.3-4.4,1-6.4c0.6-2,1.6-3.7,2.8-5.2
			s2.8-2.6,4.6-3.5s3.9-1.3,6.3-1.3c1.6,0,3.2,0.2,4.6,0.7c1.4,0.4,2.7,1.1,3.9,1.9c1.1,0.8,2.1,1.9,2.8,3.1
			c0.8,1.3,1.2,2.7,1.5,4.4h-4.1C230.9,85.7,229.9,84.1,228.3,83L228.3,83z"/>
		<path class="st0" d="M239.8,93.8c0.5-1.4,1.2-2.7,2.1-3.7c0.9-1.1,2.1-1.9,3.4-2.5c1.4-0.6,2.9-0.9,4.7-0.9s3.4,0.3,4.7,0.9
			s2.5,1.4,3.4,2.5s1.6,2.3,2.1,3.7c0.5,1.4,0.7,3,0.7,4.6s-0.2,3.2-0.7,4.6s-1.2,2.7-2.1,3.7c-0.9,1.1-2.1,1.9-3.4,2.5
			s-2.9,0.9-4.7,0.9s-3.3-0.3-4.7-0.9s-2.5-1.4-3.4-2.5s-1.6-2.3-2.1-3.7c-0.5-1.4-0.7-2.9-0.7-4.6S239.3,95.2,239.8,93.8
			L239.8,93.8z M243.6,102c0.4,1.1,0.9,1.9,1.5,2.6s1.4,1.3,2.2,1.6c0.9,0.4,1.8,0.6,2.7,0.6c1,0,1.9-0.2,2.7-0.6
			c0.9-0.4,1.6-0.9,2.2-1.6c0.6-0.7,1.1-1.6,1.5-2.6c0.4-1.1,0.5-2.3,0.5-3.6c0-1.4-0.2-2.6-0.5-3.6s-0.9-1.9-1.5-2.7
			c-0.6-0.7-1.4-1.3-2.2-1.7c-0.9-0.4-1.8-0.6-2.7-0.6c-1,0-1.9,0.2-2.7,0.6c-0.9,0.4-1.6,0.9-2.2,1.7c-0.6,0.7-1.1,1.6-1.5,2.7
			s-0.5,2.3-0.5,3.6C243,99.8,243.2,101,243.6,102z"/>
		<path class="st0" d="M263.4,87.2h4.7l5.4,7.9l5.6-7.9h4.4l-7.7,10.3l8.7,12.1h-4.7l-6.2-9.3l-6.2,9.3h-4.5l8.4-11.8L263.4,87.2
			L263.4,87.2z"/>
		<path class="st0" d="M313.4,78.6l12.1,31h-4.6l-3.4-9.3h-13.1l-3.5,9.3h-4.2l12.1-31H313.4z M316.2,96.8L311,82.3l0,0l-5.3,14.5
			H316.2L316.2,96.8z"/>
		<path class="st0" d="M343,109.6V106h-0.1c-0.8,1.4-1.8,2.4-3,3.1s-2.6,1-4.3,1c-1.5,0-2.7-0.2-3.7-0.6s-1.8-0.9-2.4-1.7
			c-0.6-0.7-1-1.6-1.3-2.6c-0.2-1-0.4-2.1-0.4-3.3V87.2h3.7v15.2c0,1.4,0.4,2.5,1.2,3.3c0.8,0.8,1.9,1.2,3.3,1.2
			c1.1,0,2.1-0.2,2.9-0.5s1.5-0.8,2.1-1.5c0.6-0.6,1-1.4,1.2-2.2c0.3-0.9,0.4-1.8,0.4-2.8V87.2h3.7v22.4H343L343,109.6z"/>
		<path class="st0" d="M361.6,87.2v3.3h-4.5v13.9c0,0.4,0,0.8,0.1,1c0.1,0.3,0.2,0.5,0.4,0.6c0.2,0.1,0.5,0.2,0.8,0.3
			c0.4,0,0.8,0.1,1.4,0.1h1.7v3.3h-2.8c-1,0-1.8-0.1-2.4-0.2c-0.7-0.1-1.2-0.4-1.7-0.7c-0.4-0.3-0.7-0.8-0.9-1.5
			c-0.2-0.6-0.3-1.5-0.3-2.5V90.4h-3.8v-3.3h3.8v-6.7h3.7v6.7L361.6,87.2L361.6,87.2z"/>
		<path class="st0" d="M365.2,93.8c0.5-1.4,1.2-2.7,2.1-3.7c0.9-1.1,2.1-1.9,3.4-2.5c1.4-0.6,2.9-0.9,4.7-0.9c1.8,0,3.4,0.3,4.7,0.9
			c1.3,0.6,2.5,1.4,3.4,2.5s1.6,2.3,2.1,3.7c0.5,1.4,0.7,3,0.7,4.6s-0.2,3.2-0.7,4.6s-1.2,2.7-2.1,3.7c-0.9,1.1-2.1,1.9-3.4,2.5
			s-2.9,0.9-4.7,0.9c-1.8,0-3.3-0.3-4.7-0.9c-1.4-0.6-2.5-1.4-3.4-2.5s-1.6-2.3-2.1-3.7s-0.7-2.9-0.7-4.6S364.7,95.2,365.2,93.8z
			 M369,102c0.4,1.1,0.9,1.9,1.5,2.6s1.4,1.3,2.2,1.6c0.9,0.4,1.8,0.6,2.7,0.6c1,0,1.9-0.2,2.7-0.6c0.9-0.4,1.6-0.9,2.2-1.6
			s1.1-1.6,1.5-2.6c0.4-1.1,0.5-2.3,0.5-3.6c0-1.4-0.2-2.6-0.5-3.6s-0.9-1.9-1.5-2.7c-0.6-0.7-1.4-1.3-2.2-1.7
			c-0.9-0.4-1.8-0.6-2.7-0.6c-1,0-1.9,0.2-2.7,0.6c-0.9,0.4-1.6,0.9-2.2,1.7c-0.6,0.7-1.1,1.6-1.5,2.7s-0.5,2.3-0.5,3.6
			C368.4,99.8,368.6,101,369,102z"/>
		<path class="st0" d="M394.1,87.2v3.3h0.1c1.7-2.5,4.1-3.8,7.2-3.8c1.4,0,2.6,0.3,3.8,0.9c1.1,0.6,1.9,1.6,2.4,2.9
			c0.8-1.2,1.7-2.2,3-2.8s2.6-1,4.1-1c1.1,0,2.1,0.1,3.1,0.4c0.9,0.2,1.7,0.6,2.3,1.2c0.7,0.5,1.2,1.2,1.5,2c0.4,0.8,0.5,1.8,0.5,3
			v16.5h-3.7V94.9c0-0.7-0.1-1.3-0.2-1.9s-0.3-1.1-0.7-1.6c-0.3-0.4-0.8-0.8-1.3-1.1c-0.6-0.3-1.3-0.4-2.2-0.4
			c-1.8,0-3.3,0.5-4.3,1.6c-1,1-1.6,2.4-1.6,4.2v14h-3.7V94.9c0-0.7-0.1-1.4-0.2-2s-0.4-1.1-0.7-1.6s-0.7-0.8-1.3-1
			c-0.5-0.2-1.2-0.4-2.1-0.4c-1.1,0-2,0.2-2.8,0.7s-1.4,1-1.9,1.6s-0.8,1.2-1,1.9c-0.2,0.7-0.3,1.2-0.3,1.6v14h-3.7V87.2H394.1
			L394.1,87.2z"/>
		<path class="st0" d="M427.1,93.8c0.5-1.4,1.2-2.7,2.1-3.7c0.9-1.1,2.1-1.9,3.4-2.5c1.4-0.6,2.9-0.9,4.7-0.9s3.4,0.3,4.7,0.9
			c1.3,0.6,2.5,1.4,3.4,2.5s1.6,2.3,2.1,3.7c0.5,1.4,0.7,3,0.7,4.6s-0.2,3.2-0.7,4.6s-1.2,2.7-2.1,3.7c-0.9,1.1-2.1,1.9-3.4,2.5
			s-2.9,0.9-4.7,0.9c-1.8,0-3.3-0.3-4.7-0.9c-1.4-0.6-2.5-1.4-3.4-2.5s-1.6-2.3-2.1-3.7s-0.7-2.9-0.7-4.6S426.7,95.2,427.1,93.8z
			 M430.9,102c0.4,1.1,0.9,1.9,1.5,2.6s1.4,1.3,2.2,1.6c0.9,0.4,1.8,0.6,2.7,0.6s1.9-0.2,2.7-0.6c0.9-0.4,1.6-0.9,2.2-1.6
			s1.1-1.6,1.5-2.6c0.4-1.1,0.5-2.3,0.5-3.6c0-1.4-0.2-2.6-0.5-3.6s-0.9-1.9-1.5-2.7c-0.6-0.7-1.4-1.3-2.2-1.7
			c-0.9-0.4-1.8-0.6-2.7-0.6s-1.9,0.2-2.7,0.6c-0.9,0.4-1.6,0.9-2.2,1.7c-0.6,0.7-1.1,1.6-1.5,2.7s-0.5,2.3-0.5,3.6
			C430.4,99.8,430.5,101,430.9,102z"/>
		<path class="st0" d="M462.2,87.2v3.3h-4.5v13.9c0,0.4,0,0.8,0.1,1c0.1,0.3,0.2,0.5,0.4,0.6c0.2,0.1,0.5,0.2,0.8,0.3
			c0.4,0,0.8,0.1,1.4,0.1h1.7v3.3h-2.8c-1,0-1.8-0.1-2.4-0.2c-0.7-0.1-1.2-0.4-1.7-0.7c-0.4-0.3-0.7-0.8-0.9-1.5
			c-0.2-0.6-0.3-1.5-0.3-2.5V90.4h-3.8v-3.3h3.8v-6.7h3.7v6.7L462.2,87.2L462.2,87.2z"/>
		<path class="st0" d="M466.5,83.1v-4.5h3.7v4.5H466.5z M470.2,87.2v22.4h-3.7V87.2H470.2z"/>
		<path class="st0" d="M482.1,109.6l-8.3-22.4h4.1l6.3,18.7h0.1l6.1-18.7h3.9l-8.2,22.4H482.1z"/>
		<path class="st0" d="M513.5,108.2c-1.7,1.3-3.8,1.9-6.3,1.9c-1.8,0-3.3-0.3-4.7-0.9s-2.4-1.4-3.3-2.4s-1.6-2.3-2-3.7
			c-0.4-1.4-0.7-3-0.8-4.7c0-1.7,0.3-3.3,0.8-4.7c0.5-1.4,1.3-2.6,2.2-3.7c0.9-1,2.1-1.8,3.3-2.4c1.3-0.6,2.7-0.9,4.2-0.9
			c2,0,3.7,0.4,5,1.2c1.3,0.8,2.4,1.9,3.2,3.1c0.8,1.3,1.3,2.7,1.7,4.2c0.3,1.5,0.4,2.9,0.4,4.3h-16.8c0,1,0.1,1.9,0.3,2.8
			c0.3,0.9,0.7,1.7,1.3,2.3c0.6,0.7,1.3,1.2,2.2,1.6c0.9,0.4,1.9,0.6,3.2,0.6c1.6,0,2.8-0.4,3.8-1.1s1.7-1.8,2-3.3h3.6
			C516.2,105,515.2,106.9,513.5,108.2z M512.6,93.8c-0.3-0.8-0.8-1.4-1.3-2c-0.6-0.6-1.2-1-2-1.3s-1.6-0.5-2.5-0.5s-1.8,0.2-2.6,0.5
			c-0.8,0.3-1.4,0.8-2,1.4s-1,1.3-1.3,2c-0.3,0.8-0.5,1.6-0.6,2.4h12.9C513.1,95.4,512.9,94.5,512.6,93.8L512.6,93.8z"/>
	</g>
</g>
<g>
	<path class="st1" d="M58,4.3C26.5,4.3,0.9,29.9,0.9,61.4s25.6,57.1,57.1,57.1s57.1-25.6,57.1-57.1S89.6,4.3,58,4.3z M58,112.1
		c-28,0-50.6-22.7-50.6-50.6S30.1,10.8,58,10.8s50.6,22.7,50.6,50.6l0,0C108.7,89.4,86,112.1,58,112.1z"/>
	<path class="st1" d="M21.9,79l5-42.6c-5.6,6.9-9,15.7-9,25.3C17.9,67.9,19.4,73.8,21.9,79z"/>
	<path class="st1" d="M69.5,23.2c-3.6-1.1-7.5-1.7-11.5-1.7s-7.8,0.6-11.5,1.7L58,59.1L69.5,23.2z"/>
	<path class="st1" d="M62.1,96.3h-8.2L40.6,55l-2.8,41.3c5.9,3.5,12.8,5.4,20.2,5.4s14.2-2,20.2-5.4L75.4,55L62.1,96.3z"/>
	<path class="st1" d="M94.1,79.1L94.1,79.1c2.6-5.3,4-11.2,4-17.5c0-9.6-3.4-18.4-9-25.3L94.1,79.1z"/>
</g>
</svg>
